<svg width="1600" height="1080" viewBox="0 0 1600 1080" fill="none" xmlns="http://www.w3.org/2000/svg">
  <defs>
    <linearGradient id="bgGlow" x1="220" y1="120" x2="1360" y2="920" gradientUnits="userSpaceOnUse">
      <stop stop-color="#1B1E24"/>
      <stop offset="0.55" stop-color="#13161A"/>
      <stop offset="1" stop-color="#0D1014"/>
    </linearGradient>
    <radialGradient id="limeGlow" cx="0" cy="0" r="1" gradientUnits="userSpaceOnUse" gradientTransform="translate(1250 180) rotate(135) scale(420 280)">
      <stop stop-color="#CDDF47" stop-opacity="0.16"/>
      <stop offset="1" stop-color="#CDDF47" stop-opacity="0"/>
    </radialGradient>
    <radialGradient id="blueGlow" cx="0" cy="0" r="1" gradientUnits="userSpaceOnUse" gradientTransform="translate(380 840) rotate(12) scale(460 260)">
      <stop stop-color="#52A8FF" stop-opacity="0.14"/>
      <stop offset="1" stop-color="#52A8FF" stop-opacity="0"/>
    </radialGradient>
    <linearGradient id="windowBorder" x1="388" y1="152" x2="1212" y2="920" gradientUnits="userSpaceOnUse">
      <stop stop-color="#2B313A"/>
      <stop offset="1" stop-color="#20252C"/>
    </linearGradient>
    <linearGradient id="panelFill" x1="420" y1="180" x2="1180" y2="900" gradientUnits="userSpaceOnUse">
      <stop stop-color="#16191D"/>
      <stop offset="1" stop-color="#101317"/>
    </linearGradient>
    <linearGradient id="sidebarFill" x1="1040" y1="242" x2="1160" y2="892" gradientUnits="userSpaceOnUse">
      <stop stop-color="#1C2026"/>
      <stop offset="1" stop-color="#13171C"/>
    </linearGradient>
    <linearGradient id="selectionGlow" x1="456" y1="314" x2="1000" y2="314" gradientUnits="userSpaceOnUse">
      <stop stop-color="#52A8FF" stop-opacity="0.22"/>
      <stop offset="1" stop-color="#CDDF47" stop-opacity="0.08"/>
    </linearGradient>
  </defs>

  <rect width="1600" height="1080" fill="#0B0E12"/>
  <rect width="1600" height="1080" fill="url(#bgGlow)"/>
  <rect width="1600" height="1080" fill="url(#limeGlow)"/>
  <rect width="1600" height="1080" fill="url(#blueGlow)"/>

  <g opacity="0.18">
    <path d="M0 46H1600" stroke="#20252C"/>
    <path d="M0 104H1600" stroke="#20252C"/>
    <path d="M0 162H1600" stroke="#20252C"/>
    <path d="M0 220H1600" stroke="#20252C"/>
    <path d="M0 278H1600" stroke="#20252C"/>
    <path d="M0 336H1600" stroke="#20252C"/>
    <path d="M0 394H1600" stroke="#20252C"/>
    <path d="M0 452H1600" stroke="#20252C"/>
    <path d="M0 510H1600" stroke="#20252C"/>
    <path d="M0 568H1600" stroke="#20252C"/>
    <path d="M0 626H1600" stroke="#20252C"/>
    <path d="M0 684H1600" stroke="#20252C"/>
    <path d="M0 742H1600" stroke="#20252C"/>
    <path d="M0 800H1600" stroke="#20252C"/>
    <path d="M0 858H1600" stroke="#20252C"/>
    <path d="M0 916H1600" stroke="#20252C"/>
    <path d="M0 974H1600" stroke="#20252C"/>
    <path d="M0 1032H1600" stroke="#20252C"/>
  </g>

  <text x="388" y="132" fill="#D7D1C5" font-family="Segoe UI, Arial, sans-serif" font-size="76" font-weight="700">Moss</text>
  <text x="392" y="178" fill="#9BA3AF" font-family="Segoe UI, Arial, sans-serif" font-size="24">Contrast-forward code color language concept</text>

  <rect x="388" y="208" width="824" height="706" rx="30" fill="#0E1116" stroke="url(#windowBorder)" stroke-width="2"/>
  <rect x="404" y="224" width="792" height="674" rx="24" fill="url(#panelFill)"/>
  <rect x="404" y="224" width="792" height="72" rx="24" fill="#101317"/>
  <path d="M404 280H1196" stroke="#252A31"/>
  <circle cx="438" cy="259" r="8" fill="#FF7A45"/>
  <circle cx="466" cy="259" r="8" fill="#F5B24A"/>
  <circle cx="494" cy="259" r="8" fill="#CDDF47"/>

  <text x="542" y="266" fill="#D7D1C5" font-family="Segoe UI, Arial, sans-serif" font-size="18" font-weight="700">signal.dark.ts</text>
  <text x="1038" y="266" fill="#727B89" font-family="Segoe UI, Arial, sans-serif" font-size="16">flagship preview</text>

  <rect x="436" y="316" width="546" height="44" rx="14" fill="url(#selectionGlow)" stroke="#29313A"/>
  <text x="460" y="344" fill="#FF7A45" font-family="JetBrains Mono, Consolas, monospace" font-size="22" font-weight="700">export</text>
  <text x="544" y="344" fill="#9B9488" font-family="JetBrains Mono, Consolas, monospace" font-size="22">const</text>
  <text x="614" y="344" fill="#52A8FF" font-family="JetBrains Mono, Consolas, monospace" font-size="22">signalTheme</text>
  <text x="780" y="344" fill="#D7D1C5" font-family="JetBrains Mono, Consolas, monospace" font-size="22">=</text>
  <text x="808" y="344" fill="#CDDF47" font-family="JetBrains Mono, Consolas, monospace" font-size="22">defineTheme</text>
  <text x="970" y="344" fill="#D7D1C5" font-family="JetBrains Mono, Consolas, monospace" font-size="22">(</text>

  <text x="436" y="406" fill="#727B89" font-family="JetBrains Mono, Consolas, monospace" font-size="21">// faster scanning, sharper landmarks, neutral substrate</text>

  <text x="436" y="466" fill="#D7D1C5" font-family="JetBrains Mono, Consolas, monospace" font-size="22">palette:</text>
  <text x="548" y="466" fill="#D7D1C5" font-family="JetBrains Mono, Consolas, monospace" font-size="22">{</text>

  <text x="474" y="520" fill="#9B9488" font-family="JetBrains Mono, Consolas, monospace" font-size="22">keyword:</text>
  <text x="640" y="520" fill="#FF7A45" font-family="JetBrains Mono, Consolas, monospace" font-size="22">'spark'</text>
  <text x="742" y="520" fill="#D7D1C5" font-family="JetBrains Mono, Consolas, monospace" font-size="22">,</text>

  <text x="474" y="566" fill="#9B9488" font-family="JetBrains Mono, Consolas, monospace" font-size="22">function:</text>
  <text x="640" y="566" fill="#52A8FF" font-family="JetBrains Mono, Consolas, monospace" font-size="22">'voltage'</text>
  <text x="776" y="566" fill="#D7D1C5" font-family="JetBrains Mono, Consolas, monospace" font-size="22">,</text>

  <text x="474" y="612" fill="#9B9488" font-family="JetBrains Mono, Consolas, monospace" font-size="22">type:</text>
  <text x="640" y="612" fill="#CDDF47" font-family="JetBrains Mono, Consolas, monospace" font-size="22">'citron'</text>
  <text x="756" y="612" fill="#D7D1C5" font-family="JetBrains Mono, Consolas, monospace" font-size="22">,</text>

  <text x="474" y="658" fill="#9B9488" font-family="JetBrains Mono, Consolas, monospace" font-size="22">string:</text>
  <text x="640" y="658" fill="#7ED66B" font-family="JetBrains Mono, Consolas, monospace" font-size="22">'jade'</text>
  <text x="736" y="658" fill="#D7D1C5" font-family="JetBrains Mono, Consolas, monospace" font-size="22">,</text>

  <text x="474" y="704" fill="#9B9488" font-family="JetBrains Mono, Consolas, monospace" font-size="22">number:</text>
  <text x="640" y="704" fill="#F5B24A" font-family="JetBrains Mono, Consolas, monospace" font-size="22">'amber'</text>
  <text x="750" y="704" fill="#D7D1C5" font-family="JetBrains Mono, Consolas, monospace" font-size="22">,</text>

  <text x="474" y="750" fill="#9B9488" font-family="JetBrains Mono, Consolas, monospace" font-size="22">comment:</text>
  <text x="640" y="750" fill="#727B89" font-family="JetBrains Mono, Consolas, monospace" font-size="22">'slate'</text>

  <text x="436" y="818" fill="#D7D1C5" font-family="JetBrains Mono, Consolas, monospace" font-size="22">})</text>

  <rect x="1030" y="316" width="134" height="176" rx="18" fill="url(#sidebarFill)" stroke="#282E36"/>
  <text x="1054" y="350" fill="#D7D1C5" font-family="Segoe UI, Arial, sans-serif" font-size="18" font-weight="700">Core Lanes</text>
  <rect x="1054" y="374" width="88" height="12" rx="6" fill="#FF7A45"/>
  <text x="1054" y="406" fill="#9BA3AF" font-family="Segoe UI, Arial, sans-serif" font-size="15">Spark</text>
  <rect x="1054" y="434" width="88" height="12" rx="6" fill="#52A8FF"/>
  <text x="1054" y="466" fill="#9BA3AF" font-family="Segoe UI, Arial, sans-serif" font-size="15">Voltage</text>
  <rect x="1054" y="494" width="88" height="12" rx="6" fill="#CDDF47"/>
  <text x="1054" y="526" fill="#9BA3AF" font-family="Segoe UI, Arial, sans-serif" font-size="15">Citron</text>

  <rect x="1030" y="518" width="134" height="220" rx="18" fill="url(#sidebarFill)" stroke="#282E36"/>
  <text x="1054" y="552" fill="#D7D1C5" font-family="Segoe UI, Arial, sans-serif" font-size="18" font-weight="700">Intent</text>
  <text x="1054" y="590" fill="#9BA3AF" font-family="Segoe UI, Arial, sans-serif" font-size="15">• faster landmarks</text>
  <text x="1054" y="620" fill="#9BA3AF" font-family="Segoe UI, Arial, sans-serif" font-size="15">• neutral substrate</text>
  <text x="1054" y="650" fill="#9BA3AF" font-family="Segoe UI, Arial, sans-serif" font-size="15">• selective peaks</text>
  <text x="1054" y="680" fill="#9BA3AF" font-family="Segoe UI, Arial, sans-serif" font-size="15">• active coding bias</text>

  <rect x="1030" y="764" width="134" height="102" rx="18" fill="url(#sidebarFill)" stroke="#282E36"/>
  <text x="1054" y="798" fill="#D7D1C5" font-family="Segoe UI, Arial, sans-serif" font-size="18" font-weight="700">Base</text>
  <rect x="1054" y="822" width="88" height="12" rx="6" fill="#16191D"/>
  <text x="1054" y="852" fill="#9BA3AF" font-family="Segoe UI, Arial, sans-serif" font-size="15">Carbon dark</text>

  <text x="392" y="980" fill="#D7D1C5" font-family="Segoe UI, Arial, sans-serif" font-size="30" font-weight="700">A sharper companion to HearthCode</text>
  <text x="392" y="1016" fill="#9BA3AF" font-family="Segoe UI, Arial, sans-serif" font-size="21">Yellow-green signal energy, cyan callable anchors, coral pressure, and a cooler neutral frame.</text>
</svg>
